<?xml version="1.0" standalone="no"?>
<!DOCTYPE svg PUBLIC "-//W3C//DTD SVG 20010904//EN"
 "http://www.w3.org/TR/2001/REC-SVG-20010904/DTD/svg10.dtd">
<svg version="1.0" xmlns="http://www.w3.org/2000/svg"
 width="256.000000pt" height="256.000000pt" viewBox="0 0 256.000000 256.000000"
 preserveAspectRatio="xMidYMid meet">
<metadata>
Created by potrace 1.11, written by Peter Selinger 2001-2013
</metadata>
<g transform="translate(0.000000,256.000000) scale(0.100000,-0.100000)"
fill="#000000" stroke="none">
<path d="M1256 2470 c-28 -11 -70 -39 -95 -64 -46 -43 -46 -44 -131 -49 -156
-9 -253 -89 -254 -208 0 -48 40 -131 68 -142 13 -5 15 -54 18 -314 l3 -308 29
-60 c17 -33 57 -88 91 -122 33 -34 59 -67 57 -73 -7 -20 -58 -38 -132 -45 -88
-9 -189 -37 -246 -70 -48 -28 -105 -89 -125 -133 l-14 -32 -208 0 c-233 0
-263 -6 -297 -62 -12 -20 -20 -51 -20 -77 0 -37 6 -49 39 -82 38 -38 41 -39
109 -39 l71 0 31 -55 c17 -30 55 -79 83 -110 l53 -55 -34 0 c-25 0 -43 -9 -68
-34 -33 -33 -34 -36 -34 -116 0 -80 1 -83 34 -116 l34 -34 141 0 c130 0 142 2
153 20 18 28 93 28 108 0 10 -19 21 -20 240 -20 l230 0 31 28 c26 23 33 38 37
80 l5 52 438 0 c433 0 439 0 439 -20 0 -11 15 -37 34 -57 33 -36 37 -38 109
-41 119 -6 190 29 228 113 25 55 27 260 3 308 -24 47 -73 95 -111 108 l-33 11
0 264 0 264 43 0 c51 0 100 28 127 72 18 30 20 51 20 239 0 197 -1 207 -22
239 -47 68 -66 75 -201 75 -139 0 -175 -13 -212 -75 -18 -32 -20 -52 -20 -240
0 -181 2 -208 18 -235 28 -45 65 -68 119 -73 l48 -5 0 -263 0 -264 -28 0 c-27
0 -29 3 -50 98 -48 215 -152 301 -404 335 -54 8 -108 21 -123 31 l-26 17 59
64 c33 35 75 94 94 132 l33 68 3 298 3 299 33 34 c91 94 58 239 -69 303 -35
18 -70 25 -136 29 -88 5 -89 5 -110 38 -11 19 -41 46 -66 61 -62 36 -175 42
-247 13z m199 -83 c23 -13 49 -40 62 -63 l23 -41 101 -5 c93 -5 103 -7 120
-29 48 -62 42 -133 -16 -189 l-35 -34 0 -109 0 -109 -57 7 c-167 21 -205 22
-226 5 -14 -12 -18 -23 -13 -38 8 -24 20 -28 118 -37 l66 -6 7 -37 c10 -52 29
-84 71 -121 36 -32 37 -33 32 -95 -3 -38 -16 -84 -33 -121 -62 -131 -253 -273
-352 -262 -69 7 -182 68 -254 135 -83 77 -120 144 -126 226 l-5 63 33 14 c57
23 115 89 129 147 l13 51 61 5 c34 3 74 7 90 8 39 4 61 37 42 63 -12 17 -25
19 -83 17 -37 -2 -113 -9 -167 -17 -55 -8 -103 -15 -108 -15 -4 0 -8 51 -8
113 l0 114 -40 41 c-33 33 -40 47 -40 80 0 45 26 84 73 108 19 10 68 18 132
22 99 5 103 6 119 33 52 88 185 125 271 76z m915 -693 c14 -37 13 -377 -2
-409 -10 -23 -17 -25 -72 -25 -107 0 -106 -3 -106 227 0 237 -2 233 102 233
64 0 69 -2 78 -26z m-1390 -764 l0 -80 -45 0 -45 0 0 74 c0 74 0 75 28 79 66
10 62 14 62 -73z m832 4 c5 -3 8 -41 8 -85 l0 -79 -45 0 -45 0 0 91 0 91 37
-7 c21 -4 41 -9 45 -11z m-37 -266 c2 -13 16 -88 30 -168 14 -80 28 -155 30
-167 l5 -23 -291 0 -291 0 -35 30 c-27 24 -43 30 -82 30 l-47 0 47 49 c25 27
62 75 81 107 l34 59 76 5 c68 4 80 8 107 34 17 16 33 38 37 48 5 16 19 18 149
18 142 0 145 0 150 -22z m565 -130 c28 -47 29 -256 1 -308 -20 -38 -62 -51
-101 -30 -19 10 -20 20 -20 178 0 117 4 172 12 180 7 7 29 12 50 12 32 0 41
-5 58 -32z"/>
<path d="M1322 2238 c-13 -13 -17 -192 -6 -222 7 -19 45 -21 62 -4 8 8 12 48
12 113 0 103 -7 125 -40 125 -9 0 -21 -5 -28 -12z"/>
<path d="M1062 2158 c-8 -8 -12 -46 -12 -114 0 -110 8 -129 52 -122 23 3 23 5
23 123 l0 120 -25 3 c-14 2 -31 -3 -38 -10z"/>
<path d="M1570 2151 c-5 -11 -10 -59 -10 -106 0 -98 10 -125 45 -125 14 0 29
8 35 19 14 28 13 204 -2 219 -18 18 -56 14 -68 -7z"/>
<path d="M1104 1605 c-24 -24 -25 -28 -11 -48 15 -22 24 -23 85 -11 20 4 43 2
57 -6 31 -16 65 2 65 35 0 34 -45 55 -115 55 -47 0 -60 -4 -81 -25z"/>
<path d="M1425 1618 c-43 -24 -47 -63 -10 -80 19 -9 28 -9 37 0 15 15 63 15
89 1 26 -14 56 -3 65 23 12 38 -36 68 -104 68 -31 0 -66 -6 -77 -12z"/>
<path d="M592 1575 c-37 -47 -45 -87 -26 -136 25 -69 28 -94 10 -108 -23 -19
-20 -58 4 -71 18 -10 26 -6 55 23 29 29 35 42 35 79 -1 23 -7 54 -15 68 -19
33 -19 74 1 90 9 8 14 25 12 44 -4 43 -47 49 -76 11z"/>
<path d="M387 1372 c-40 -42 -50 -85 -31 -136 25 -66 27 -91 10 -105 -39 -32
-6 -93 39 -73 51 23 72 110 41 170 -21 41 -20 69 4 99 24 31 25 37 4 57 -22
23 -36 20 -67 -12z"/>
</g>
</svg>
